<svg xmlns="http://www.w3.org/2000/svg" xmlns:xlink="http://www.w3.org/1999/xlink" width="230" zoomAndPan="magnify" viewBox="49 2 124 56" height="80" preserveAspectRatio="xMidYMid meet" version="1.0"><defs><g/><clipPath id="7fc4e3f80b"><path d="M 49 0.015625 L 174 0.015625 L 174 59.984375 L 49 59.984375 Z M 49 0.015625 " clip-rule="nonzero"/></clipPath><clipPath id="086ce69399"><rect x="0" width="125" y="0" height="60"/></clipPath></defs><g clip-path="url(#7fc4e3f80b)"><g transform="matrix(1, 0, 0, 1, 49, -0.000000000000011803)"><g clip-path="url(#086ce69399)"><g fill="#ffffff" fill-opacity="1"><g transform="translate(0.740932, 54.900246)"><g><path d="M 17.53125 0 C 14.15625 0 11.515625 -0.960938 9.609375 -2.890625 C 7.710938 -4.816406 6.765625 -7.414062 6.765625 -10.6875 L 6.765625 -45.484375 L 17.890625 -45.484375 L 17.890625 -11.328125 C 17.890625 -10.765625 18.09375 -10.28125 18.5 -9.875 C 18.90625 -9.46875 19.390625 -9.265625 19.953125 -9.265625 L 27.9375 -9.265625 L 27.9375 0 Z M 0.78125 -27.515625 L 0.78125 -36.5625 L 27.9375 -36.5625 L 27.9375 -27.515625 Z M 0.78125 -27.515625 "/></g></g></g><g fill="#ffffff" fill-opacity="1"><g transform="translate(26.403702, 54.900246)"><g><path d="M 3.84375 0 L 3.84375 -25.796875 C 3.84375 -29.128906 4.789062 -31.742188 6.6875 -33.640625 C 8.59375 -35.546875 11.234375 -36.5 14.609375 -36.5 L 25.234375 -36.5 L 25.234375 -27.515625 L 17.328125 -27.515625 C 16.660156 -27.515625 16.085938 -27.285156 15.609375 -26.828125 C 15.128906 -26.378906 14.890625 -25.800781 14.890625 -25.09375 L 14.890625 0 Z M 3.84375 0 "/></g></g></g><g fill="#ffffff" fill-opacity="1"><g transform="translate(47.504187, 54.900246)"><g><path d="M 23.234375 0 C 19.097656 0 15.460938 -0.769531 12.328125 -2.3125 C 9.191406 -3.863281 6.753906 -6.003906 5.015625 -8.734375 C 3.285156 -11.460938 2.421875 -14.632812 2.421875 -18.25 C 2.421875 -22.238281 3.25 -25.660156 4.90625 -28.515625 C 6.570312 -31.367188 8.796875 -33.566406 11.578125 -35.109375 C 14.359375 -36.648438 17.4375 -37.421875 20.8125 -37.421875 C 24.664062 -37.421875 27.882812 -36.613281 30.46875 -35 C 33.0625 -33.382812 35.019531 -31.1875 36.34375 -28.40625 C 37.675781 -25.625 38.34375 -22.453125 38.34375 -18.890625 C 38.34375 -18.273438 38.304688 -17.550781 38.234375 -16.71875 C 38.171875 -15.882812 38.09375 -15.226562 38 -14.75 L 14.046875 -14.75 C 14.328125 -13.519531 14.867188 -12.472656 15.671875 -11.609375 C 16.484375 -10.753906 17.503906 -10.125 18.734375 -9.71875 C 19.972656 -9.320312 21.351562 -9.125 22.875 -9.125 L 34.078125 -9.125 L 34.078125 0 Z M 13.75 -21.671875 L 27.65625 -21.671875 C 27.5625 -22.429688 27.414062 -23.164062 27.21875 -23.875 C 27.03125 -24.59375 26.734375 -25.222656 26.328125 -25.765625 C 25.929688 -26.316406 25.472656 -26.789062 24.953125 -27.1875 C 24.429688 -27.59375 23.820312 -27.914062 23.125 -28.15625 C 22.4375 -28.394531 21.664062 -28.515625 20.8125 -28.515625 C 19.71875 -28.515625 18.742188 -28.320312 17.890625 -27.9375 C 17.035156 -27.5625 16.320312 -27.050781 15.75 -26.40625 C 15.175781 -25.769531 14.734375 -25.035156 14.421875 -24.203125 C 14.117188 -23.367188 13.894531 -22.523438 13.75 -21.671875 Z M 13.75 -21.671875 "/></g></g></g><g fill="#ffffff" fill-opacity="1"><g transform="translate(83.218247, 54.900246)"><g><path d="M 4.140625 0 L 4.140625 -52.03125 L 15.1875 -52.03125 L 15.1875 -22.734375 L 20.03125 -22.734375 L 28.375 -36.5625 L 40.703125 -36.5625 L 30.859375 -21.3125 C 33.710938 -20.125 35.9375 -18.304688 37.53125 -15.859375 C 39.125 -13.410156 39.921875 -10.546875 39.921875 -7.265625 L 39.921875 0 L 28.796875 0 L 28.796875 -7.265625 C 28.796875 -8.597656 28.472656 -9.796875 27.828125 -10.859375 C 27.191406 -11.929688 26.347656 -12.773438 25.296875 -13.390625 C 24.253906 -14.015625 23.066406 -14.328125 21.734375 -14.328125 L 15.1875 -14.328125 L 15.1875 0 Z M 4.140625 0 "/></g></g></g></g></g></g></svg>